<svg version="1.1" id="Layer_1" xmlns="http://www.w3.org/2000/svg" xmlns:xlink="http://www.w3.org/1999/xlink" x="0px" y="0px"
	 width="100%" viewBox="0 0 500 500" enable-background="new 0 0 500 500" xml:space="preserve">
<path fill="#7ED957" opacity="1.000000" stroke="none" 
	d="
M501.000000,232.000000 
	C501.000000,244.020889 501.000000,256.041779 500.680786,268.793091 
	C497.544708,303.596222 489.014465,336.166077 472.714478,366.252228 
	C432.569977,440.350098 370.588959,484.191711 287.496704,498.183289 
	C281.347382,499.218750 275.166321,500.065521 269.000000,501.000000 
	C257.312439,501.000000 245.624878,501.000000 233.204880,500.687683 
	C189.823776,496.935303 150.361053,483.889679 114.660995,460.279358 
	C54.623127,420.573273 18.208273,365.050842 4.917750,294.346558 
	C3.460266,286.592865 2.298776,278.783539 1.000000,271.000000 
	C1.000000,257.979095 1.000000,244.958206 1.343320,231.246155 
	C2.076526,227.589539 2.491146,224.627090 2.852639,221.658188 
	C9.798351,164.613541 33.345474,115.440491 73.880280,74.802612 
	C111.254440,37.333416 156.134720,13.657640 208.531204,4.792956 
	C216.992508,3.361432 225.509018,2.256108 234.000000,1.000000 
	C245.354233,1.000000 256.708466,1.000000 268.774597,1.332136 
	C320.672607,5.866243 366.658722,23.458120 406.732422,55.700279 
	C455.671936,95.075645 485.819244,145.787155 497.063904,207.638611 
	C498.534943,215.730164 499.695587,223.878159 501.000000,232.000000 
M225.699738,155.110153 
	C211.667801,191.474854 185.532959,215.000504 149.179901,228.123505 
	C125.927002,236.517532 101.949005,241.910553 77.852676,246.971970 
	C71.311874,248.345856 64.742630,249.584335 59.624168,250.599731 
	C86.676399,257.566681 114.925552,263.939728 142.618515,272.181641 
	C186.021347,285.099060 214.902939,313.463074 229.246307,356.803375 
	C237.849426,382.798798 243.576782,409.414978 248.984207,436.156860 
	C249.509003,438.752045 250.198822,441.313873 250.812042,443.891174 
	C256.959442,415.072784 262.576019,386.519196 272.076019,358.902802 
	C280.560028,334.239746 292.715424,311.986847 313.683838,295.537262 
	C330.070160,282.682281 348.916077,274.592743 368.720947,269.176910 
	C393.560059,262.384491 418.745819,256.859802 443.505463,250.855042 
	C440.920715,250.322861 437.736755,249.645752 434.543945,249.013275 
	C405.978882,243.354645 377.523926,237.395020 350.134949,227.077362 
	C314.945679,213.821243 289.682709,190.463715 276.683014,155.009201 
	C270.572937,138.344971 265.660065,121.188393 261.151520,104.006485 
	C257.226868,89.049744 254.633484,73.743675 251.451828,58.591972 
	C249.823853,63.228561 248.926956,67.918419 247.979172,72.597961 
	C242.363525,100.324226 236.583588,128.007065 225.699738,155.110153 
z"/>
<path fill="#FFFFFF" opacity="1.000000" stroke="none" 
	d="
M501.000000,231.531342 
	C499.695587,223.878159 498.534943,215.730164 497.063904,207.638611 
	C485.819244,145.787155 455.671936,95.075645 406.732422,55.700279 
	C366.658722,23.458120 320.672607,5.866243 269.243286,1.332136 
	C346.260223,1.000000 423.520416,1.000000 501.000000,1.000000 
	C501.000000,77.687424 501.000000,154.375046 501.000000,231.531342 
z"/>
<path fill="#FFFFFF" opacity="1.000000" stroke="none" 
	d="
M269.468658,501.000000 
	C275.166321,500.065521 281.347382,499.218750 287.496704,498.183289 
	C370.588959,484.191711 432.569977,440.350098 472.714478,366.252228 
	C489.014465,336.166077 497.544708,303.596222 500.680786,269.261780 
	C501.000000,346.260376 501.000000,423.520721 501.000000,501.000000 
	C423.979248,501.000000 346.958282,501.000000 269.468658,501.000000 
z"/>
<path fill="#FFFFFF" opacity="1.000000" stroke="none" 
	d="
M233.531342,1.000000 
	C225.509018,2.256108 216.992508,3.361432 208.531204,4.792956 
	C156.134720,13.657640 111.254440,37.333416 73.880280,74.802612 
	C33.345474,115.440491 9.798351,164.613541 2.852639,221.658188 
	C2.491146,224.627090 2.076526,227.589539 1.343320,230.777496 
	C1.000000,154.405807 1.000000,77.811623 1.000000,1.000000 
	C78.354095,1.000000 155.708389,1.000000 233.531342,1.000000 
z"/>
<path fill="#FFFFFF" opacity="1.000000" stroke="none" 
	d="
M1.000000,271.468658 
	C2.298776,278.783539 3.460266,286.592865 4.917750,294.346558 
	C18.208273,365.050842 54.623127,420.573273 114.660995,460.279358 
	C150.361053,483.889679 189.823776,496.935303 232.736221,500.687683 
	C155.739944,501.000000 78.479889,501.000000 1.000000,501.000000 
	C1.000000,424.645905 1.000000,348.291626 1.000000,271.468658 
z"/>
<path fill="#010100" opacity="1.000000" stroke="none" 
	d="
M225.835846,154.749756 
	C236.583588,128.007065 242.363525,100.324226 247.979172,72.597961 
	C248.926956,67.918419 249.823853,63.228561 251.451828,58.591972 
	C254.633484,73.743675 257.226868,89.049744 261.151520,104.006485 
	C265.660065,121.188393 270.572937,138.344971 276.683014,155.009201 
	C289.682709,190.463715 314.945679,213.821243 350.134949,227.077362 
	C377.523926,237.395020 405.978882,243.354645 434.543945,249.013275 
	C437.736755,249.645752 440.920715,250.322861 443.505463,250.855042 
	C418.745819,256.859802 393.560059,262.384491 368.720947,269.176910 
	C348.916077,274.592743 330.070160,282.682281 313.683838,295.537262 
	C292.715424,311.986847 280.560028,334.239746 272.076019,358.902802 
	C262.576019,386.519196 256.959442,415.072784 250.812042,443.891174 
	C250.198822,441.313873 249.509003,438.752045 248.984207,436.156860 
	C243.576782,409.414978 237.849426,382.798798 229.246307,356.803375 
	C214.902939,313.463074 186.021347,285.099060 142.618515,272.181641 
	C114.925552,263.939728 86.676399,257.566681 59.624168,250.599731 
	C64.742630,249.584335 71.311874,248.345856 77.852676,246.971970 
	C101.949005,241.910553 125.927002,236.517532 149.179901,228.123505 
	C185.532959,215.000504 211.667801,191.474854 225.835846,154.749756 
z"/>
</svg>