<?xml version="1.0" encoding="UTF-8"?>
<svg version="1.1" xmlns="http://www.w3.org/2000/svg" width="500" height="500">
<path d="M0 0 C1.24305908 0.02320312 1.24305908 0.02320312 2.51123047 0.046875 C28.0172114 0.5894352 53.66269317 6.85036853 77.48828125 15.70703125 C80.17133824 16.69489762 82.82386895 17.5683113 85.5625 18.375 C95.46352858 21.63039656 104.99434528 27.17250937 113.80078125 32.66015625 C115.86990223 33.92073972 117.96961164 35.0210206 120.125 36.125 C126.9232004 39.84954597 132.93235028 44.84730662 139.07568359 49.54150391 C142.56161245 52.18359208 146.11519657 54.72996793 149.66796875 57.28125 C152.17586324 59.12961445 154.64490177 60.95863599 157 63 C157 63.66 157 64.32 157 65 C157.56203125 65.2371875 158.1240625 65.474375 158.703125 65.71875 C161.51894042 67.28947697 163.47955416 69.21471464 165.75 71.5 C166.54921875 72.2940625 167.3484375 73.088125 168.171875 73.90625 C170 76 170 76 170 78 C170.66 78 171.32 78 172 78 C172 78.66 172 79.32 172 80 C172.66 80 173.32 80 174 80 C175.515625 81.50390625 175.515625 81.50390625 177.25 83.5625 C177.86488281 84.28824219 178.47976563 85.01398438 179.11328125 85.76171875 C180.04720703 86.86966797 180.04720703 86.86966797 181 88 C181.59167969 88.66644531 182.18335938 89.33289063 182.79296875 90.01953125 C183.33566406 90.63183594 183.87835938 91.24414062 184.4375 91.875 C184.93121094 92.42929688 185.42492187 92.98359375 185.93359375 93.5546875 C187 95 187 95 187 97 C187.66 97 188.32 97 189 97 C190.63429751 99.0944968 192.14167234 101.17782091 193.625 103.375 C194.04523438 103.97828125 194.46546875 104.5815625 194.8984375 105.203125 C198 109.73462865 198 109.73462865 198 112 C198.66 112 199.32 112 200 112 C200.43570312 112.82242188 200.87140625 113.64484375 201.3203125 114.4921875 C204.07555536 119.65677692 206.8224508 124.78994921 209.9375 129.75 C221.33440715 148.54277244 228.55578306 169.82803298 234 191 C234.22834534 191.87622513 234.45669067 192.75245026 234.69195557 193.65522766 C239.37016576 212.1983518 239.71353284 230.14080811 239.51818848 249.11676025 C239.49383613 252.22397277 239.49961039 255.33084366 239.50507164 258.4381237 C239.52326377 273.82181882 239.47893975 288.92636976 236 304 C235.71630876 305.32056836 235.43408877 306.64145362 235.15332031 307.96264648 C231.1960599 325.94782407 224.87999729 343.93259839 216.03564453 360.09179688 C214.90961323 362.16654007 213.82567703 364.2601085 212.74609375 366.359375 C206.88837936 377.70132951 200.39974348 388.26918095 192.79296875 398.5390625 C191.32542625 400.55333652 189.95462854 402.5818429 188.625 404.6875 C188.08875 405.450625 187.5525 406.21375 187 407 C186.34 407 185.68 407 185 407 C184.6596875 407.7734375 184.6596875 407.7734375 184.3125 408.5625 C182.51782382 411.89547005 180.50034985 415.14703671 178 418 C177.34 418 176.68 418 176 418 C176 418.66 176 419.32 176 420 C175.34 420 174.68 420 174 420 C173.74025391 420.58426758 173.48050781 421.16853516 173.21289062 421.77050781 C171.915344 424.15561164 170.50658878 425.75190637 168.59375 427.671875 C167.93246094 428.33574219 167.27117187 428.99960937 166.58984375 429.68359375 C165.90019531 430.36550781 165.21054687 431.04742187 164.5 431.75 C163.46552734 432.79607422 163.46552734 432.79607422 162.41015625 433.86328125 C161.74886719 434.52199219 161.08757812 435.18070312 160.40625 435.859375 C159.80103516 436.46233398 159.19582031 437.06529297 158.57226562 437.68652344 C157 439 157 439 155 439 C155 439.66 155 440.32 155 441 C153.1015625 442.7265625 153.1015625 442.7265625 150.625 444.625 C149.81289063 445.25664062 149.00078125 445.88828125 148.1640625 446.5390625 C146 448 146 448 144 448 C144 448.66 144 449.32 144 450 C141.9055032 451.63429751 139.82217909 453.14167234 137.625 454.625 C137.02171875 455.04523438 136.4184375 455.46546875 135.796875 455.8984375 C131.26537135 459 131.26537135 459 129 459 C129 459.66 129 460.32 129 461 C104.12107335 474.76640438 79.87119971 486.91386771 52.3125 494.25 C51.4354541 494.48428711 50.5584082 494.71857422 49.65478516 494.95996094 C35.61918877 498.54275189 22.09629111 500.46930874 7.625 500.3984375 C6.12060405 500.40046915 4.61620907 500.4033895 3.11181641 500.40713501 C-0.01083944 500.41150733 -3.13323437 500.40529496 -6.25585938 500.39111328 C-10.20544221 500.37402433 -14.15441286 500.38389339 -18.10397339 500.40183067 C-21.2014607 500.41280841 -24.29880916 500.40915917 -27.39630127 500.4014473 C-28.85036293 500.39948363 -30.30443834 500.40176496 -31.75848389 500.40888596 C-66.7058828 500.54258969 -102.18980169 487.50645331 -132.07128906 470.10839844 C-133.8628421 469.07882239 -135.67677695 468.08846354 -137.4921875 467.1015625 C-144.62478166 463.19757909 -151.26565876 458.85466794 -157.875 454.125 C-158.67921387 453.55297852 -159.48342773 452.98095703 -160.31201172 452.39160156 C-161.05209473 451.85245117 -161.79217773 451.31330078 -162.5546875 450.7578125 C-163.21968262 450.2745752 -163.88467773 449.79133789 -164.56982422 449.29345703 C-165.04178223 448.86661621 -165.51374023 448.43977539 -166 448 C-166 447.34 -166 446.68 -166 446 C-166.54140625 445.7628125 -167.0828125 445.525625 -167.640625 445.28125 C-170.63250137 443.65652243 -173.11159399 441.6498123 -175.75 439.5 C-177.22726563 438.30890625 -177.22726563 438.30890625 -178.734375 437.09375 C-179.48203125 436.4028125 -180.2296875 435.711875 -181 435 C-181 434.34 -181 433.68 -181 433 C-181.66 433 -182.32 433 -183 433 C-183 432.34 -183 431.68 -183 431 C-183.54140625 430.7834375 -184.0828125 430.566875 -184.640625 430.34375 C-187.81645344 428.53500003 -190.20728081 426.08276201 -192.75 423.5 C-193.25660156 423.00113281 -193.76320313 422.50226563 -194.28515625 421.98828125 C-198 418.25341139 -198 418.25341139 -198 416 C-198.85078125 415.69255859 -198.85078125 415.69255859 -199.71875 415.37890625 C-202.82640905 413.50047535 -204.5007495 410.88564365 -206.5 407.9375 C-207.38255243 406.66518414 -208.265377 405.39305703 -209.1484375 404.12109375 C-209.84211426 403.11344971 -209.84211426 403.11344971 -210.54980469 402.08544922 C-212.02263811 399.96744532 -213.52557529 397.87426957 -215.0390625 395.78515625 C-224.65600856 382.47278142 -232.32204392 368.76690897 -239.13818359 353.84204102 C-239.92703835 352.15594777 -240.77145004 350.49613715 -241.62109375 348.83984375 C-242.95463678 346.09342511 -243.88977195 343.48808691 -244.75 340.5625 C-245.97800752 336.39571113 -247.23717088 332.25319883 -248.6015625 328.12890625 C-255.07937495 308.21207708 -261.11393754 285.62059286 -261.1328125 264.58984375 C-261.13376923 263.90048233 -261.13472595 263.21112091 -261.13571167 262.50086975 C-261.13638819 261.0478608 -261.13457099 259.59484874 -261.13037109 258.1418457 C-261.12507319 255.96753772 -261.13030415 253.7934418 -261.13671875 251.61914062 C-261.16335003 208.61022846 -251.14386235 159.81317779 -226.765625 123.64453125 C-225.40179782 121.6018078 -224.11617979 119.55677509 -222.859375 117.44921875 C-222.49787354 116.84513184 -222.13637207 116.24104492 -221.76391602 115.61865234 C-220.73952422 113.89979308 -219.7192599 112.17847593 -218.69921875 110.45703125 C-218.13847656 109.64621094 -217.57773438 108.83539063 -217 108 C-216.34 108 -215.68 108 -215 108 C-214.76925781 107.30777344 -214.53851563 106.61554688 -214.30078125 105.90234375 C-212.72652366 102.38981106 -210.56399447 99.55499303 -208.1875 96.5625 C-207.76146484 96.01529297 -207.33542969 95.46808594 -206.89648438 94.90429688 C-205.60981998 93.25946872 -204.30661441 91.62900678 -203 90 C-202.54834473 89.42362793 -202.09668945 88.84725586 -201.63134766 88.25341797 C-200.46692747 86.79757225 -199.23813689 85.39369228 -198 84 C-197.34 84 -196.68 84 -196 84 C-196 83.34 -196 82.68 -196 82 C-195.34 82 -194.68 82 -194 82 C-194 81.34 -194 80.68 -194 80 C-193.34 80 -192.68 80 -192 80 C-191.61328125 79.12601563 -191.61328125 79.12601563 -191.21875 78.234375 C-189.90165983 75.8197097 -188.44911616 74.18259823 -186.5 72.25 C-185.8915625 71.63640625 -185.283125 71.0228125 -184.65625 70.390625 C-183 69 -183 69 -181 69 C-181 68.34 -181 67.68 -181 67 C-180.34 67 -179.68 67 -179 67 C-179 66.34 -179 65.68 -179 65 C-178.34 65 -177.68 65 -177 65 C-177 64.34 -177 63.68 -177 63 C-175.01688178 61.26744525 -173.0279982 59.65715367 -170.9375 58.0625 C-170.30553711 57.57523438 -169.67357422 57.08796875 -169.02246094 56.5859375 C-167.02085025 55.04942728 -165.01095511 53.52425207 -163 52 C-162.3910791 51.53319824 -161.7821582 51.06639648 -161.15478516 50.58544922 C-114.82254844 15.13857311 -58.06299978 -1.46646882 0 0 Z " fill="#7ED856" transform="translate(261,0)"/>
<path d="M0 0 C0.66 0 1.32 0 2 0 C2.2333606 1.09948975 2.2333606 1.09948975 2.47143555 2.22119141 C3.90100268 8.9477638 5.34132257 15.67193672 6.79420471 22.39350891 C7.60993901 26.17202293 8.4086265 29.95362867 9.1953125 33.73828125 C12.46153747 49.13722178 17.12924782 64.04183208 22 79 C22.56557617 80.76754639 22.56557617 80.76754639 23.14257812 82.57080078 C28.9619721 100.68429708 35.32636392 116.54064612 48 131 C48.62777344 131.78246094 49.25554687 132.56492188 49.90234375 133.37109375 C80.62391795 170.22518948 135.77826713 178.99431357 180.13256836 187.35205078 C181.10846924 187.54009277 182.08437012 187.72813477 183.08984375 187.921875 C183.94441162 188.08268555 184.79897949 188.24349609 185.67944336 188.40917969 C188.00699661 189.00178136 189.90191181 189.84431191 192 191 C181.322362 194.16374459 170.55359999 196.85072827 159.70690918 199.36358643 C130.06406736 206.02436725 130.06406736 206.02436725 101.3125 215.68359375 C98.41774334 216.83398643 95.52689624 217.80156966 92.5625 218.75 C78.56564274 223.87797773 66.78753819 232.93699796 56 243 C55.23171875 243.69867188 54.4634375 244.39734375 53.671875 245.1171875 C24.07408604 273.20012899 14.52282566 320.04381242 6.7644043 358.52880859 C5.15706382 366.45168787 3.22913477 374.22916148 1 382 C-1.45125785 379.54874215 -1.54708542 378.16877177 -2.18359375 374.79296875 C-2.38750732 373.73746826 -2.5914209 372.68196777 -2.80151367 371.59448242 C-3.01138916 370.47017822 -3.22126465 369.34587402 -3.4375 368.1875 C-3.87872713 365.89554769 -4.32142016 363.60387706 -4.765625 361.3125 C-4.97767578 360.21421875 -5.18972656 359.1159375 -5.40820312 357.984375 C-6.27388534 353.61882243 -7.2973721 349.30301658 -8.34204102 344.97705078 C-8.95300838 342.2126218 -9.39175176 339.48092071 -9.79296875 336.6796875 C-11.09522517 328.75219393 -13.33609458 321.12278839 -15.625 313.4375 C-15.84720215 312.68743683 -16.0694043 311.93737366 -16.29833984 311.1645813 C-23.62336783 286.55960519 -33.28833585 264.91320921 -51 246 C-52.11761719 244.79537109 -52.11761719 244.79537109 -53.2578125 243.56640625 C-67.79255509 228.49017325 -87.26411694 219.03471245 -107.0625 213.0625 C-108.48212512 212.62712831 -109.90172095 212.19166107 -111.32128906 211.75610352 C-126.77870235 207.04863941 -142.41408015 203.10468276 -158.10409546 199.25682068 C-161.43491989 198.43885031 -164.76462395 197.6163624 -168.09436035 196.79397583 C-170.52725091 196.19616147 -172.96220326 195.60737302 -175.39746094 195.01928711 C-176.8913556 194.65250486 -178.38517448 194.2854138 -179.87890625 193.91796875 C-180.91595451 193.67152618 -180.91595451 193.67152618 -181.97395325 193.42010498 C-186.77279922 192.22720078 -186.77279922 192.22720078 -189 190 C-181.61786618 188.06167436 -174.21937295 186.4159575 -166.73046875 184.94921875 C-160.41137701 183.69559934 -154.11273819 182.34457309 -147.8125 181 C-146.636875 180.75080811 -145.46125 180.50161621 -144.25 180.24487305 C-131.95465224 177.61348233 -120.0950128 174.56491091 -108.25 170.3125 C-107.02224854 169.87188232 -105.79449707 169.43126465 -104.52954102 168.97729492 C-82.76260491 161.01644586 -60.6508795 149.47431919 -46 131 C-45.49339844 130.37867188 -44.98679688 129.75734375 -44.46484375 129.1171875 C-25.32154813 104.71586668 -14.53143535 73.34478958 -9.140625 43.109375 C-8.2734182 38.27912638 -7.2194068 33.51861824 -6.0625 28.75 C-3.75410868 19.22396377 -1.87031008 9.62015875 0 0 Z " fill="#010200" transform="translate(250,60)"/>
<path d="M0 0 C2.89770898 3.26880523 3.52925319 5.82796259 4.0625 10.125 C5.6871141 23.04181781 5.6871141 23.04181781 10.125 35.1875 C11 37 11 37 11 40 C11.45068119 45.03420477 12.10696293 50.02450777 13 55 C10.16004166 51.73135931 9.24266531 48.83933491 8.28125 44.64453125 C7.99000244 43.38946777 7.69875488 42.1344043 7.39868164 40.84130859 C7.09852263 39.49850603 6.79897252 38.15556723 6.5 36.8125 C6.18968786 35.4486585 5.87905879 34.08488908 5.56811523 32.72119141 C0 8.10333101 0 8.10333101 0 0 Z " fill="#7CBF5F" transform="translate(252,59)"/>
<path d="M0 0 C1.65 0 3.3 0 5 0 C4.05128129 1.42307807 3.10183223 2.8456754 2.1484375 4.265625 C1.0317213 5.95209437 -0.04728931 7.66334184 -1.125 9.375 C-1.74375 10.24125 -2.3625 11.1075 -3 12 C-3.66 12 -4.32 12 -5 12 C-5.226875 12.515625 -5.45375 13.03125 -5.6875 13.5625 C-7.48981755 16.90966116 -9.61282504 20.03890492 -12 23 C-12.33 23 -12.66 23 -13 23 C-13 21.02 -13 19.04 -13 17 C-11.68 17 -10.36 17 -9 17 C-9 16.01 -9 15.02 -9 14 C-8.34 14 -7.68 14 -7 14 C-6.9175 13.2575 -6.835 12.515 -6.75 11.75 C-5.85190201 8.45697405 -4.61583926 7.14023212 -2 5 C-1.34 5 -0.68 5 0 5 C0 3.35 0 1.7 0 0 Z " fill="#A1DB82" transform="translate(451,395)"/>
<path d="M0 0 C3 1 3 1 4.6875 3.3125 C6 6 6 6 6 10 C6.66 10 7.32 10 8 10 C10 13 10 13 11 16 C10.67 16.66 10.34 17.32 10 18 C10.99 18.33 11.98 18.66 13 19 C13 19.99 13 20.98 13 22 C13.66 22 14.32 22 15 22 C15.103125 22.61875 15.20625 23.2375 15.3125 23.875 C15.87525373 26.36526484 15.87525373 26.36526484 19 28 C18.67 29.32 18.34 30.64 18 32 C13.44645529 26.0408595 9.67924274 19.80766222 6.1875 13.1875 C5.80279541 12.45861572 5.41809082 11.72973145 5.02172852 10.97875977 C3.15093408 7.37993225 1.41432896 3.80896001 0 0 Z " fill="#A1DB85" transform="translate(24,358)"/>
<path d="M0 0 C3.11770332 3.11770332 4.07065015 7.09337186 5.5625 11.1875 C5.87896484 12.02603516 6.19542969 12.86457031 6.52148438 13.72851562 C8.28064754 18.51299124 9.49859236 22.92410624 10 28 C9.34 28.33 8.68 28.66 8 29 C7.75765625 27.94039062 7.5153125 26.88078125 7.265625 25.7890625 C6.92794713 24.40083127 6.58935782 23.01282152 6.25 21.625 C6.09273438 20.92632812 5.93546875 20.22765625 5.7734375 19.5078125 C4.79613783 15.38416422 4.79613783 15.38416422 1.859375 12.5234375 C1.24578125 12.35070312 0.6321875 12.17796875 0 12 C0.185625 11.030625 0.37125 10.06125 0.5625 9.0625 C0.706875 8.051875 0.85125 7.04125 1 6 C0.67 5.67 0.34 5.34 0 5 C-0.04063832 3.33382885 -0.042721 1.66611905 0 0 Z " fill="#9BD983" transform="translate(482,155)"/>
<path d="M0 0 C0.66 0.33 1.32 0.66 2 1 C-0.23470244 5.59355501 -2.40906914 6.9295802 -7 9 C-8.03125 9.7425 -9.0625 10.485 -10.125 11.25 C-11.07375 11.8275 -12.0225 12.405 -13 13 C-14.32 12.67 -15.64 12.34 -17 12 C-8.585 6.06 -8.585 6.06 0 0 Z " fill="#96DA7B" transform="translate(116,39)"/>
<path d="M0 0 C0.66 0 1.32 0 2 0 C0.00878667 7.89498617 -3.18914143 14.82226638 -7 22 C-7.33 22 -7.66 22 -8 22 C-8 20.35 -8 18.7 -8 17 C-7.34 17 -6.68 17 -6 17 C-6.12375 16.0409375 -6.12375 16.0409375 -6.25 15.0625 C-5.7959163 9.49997463 -3.0618657 4.59279855 0 0 Z " fill="#A5DD8A" transform="translate(485,336)"/>
<path d="M0 0 C4.47379529 0.31395055 7.82670679 0.65290986 11.6875 3 C14.77261926 5.13320076 14.77261926 5.13320076 17.8125 5.5 C18.8953125 5.7475 18.8953125 5.7475 20 6 C21.13671875 8.03125 21.13671875 8.03125 22 10 C14.10501383 8.00878667 7.17773362 4.81085857 0 1 C0 0.67 0 0.34 0 0 Z " fill="#A6DC8C" transform="translate(140,475)"/>
<path d="M0 0 C3.021915 2.86286684 5.24071954 5.24686836 7 9 C7.70125 9.86625 8.4025 10.7325 9.125 11.625 C11 14 11 14 11 16 C12.32 16.66 13.64 17.32 15 18 C14.34 18.66 13.68 19.32 13 20 C2.34388603 8.46168052 2.34388603 8.46168052 -1 3 C-0.67 2.01 -0.34 1.02 0 0 Z " fill="#7EC061" transform="translate(290,178)"/>
<path d="M0 0 C1.75070517 0.11470137 3.50057536 0.24219028 5.25 0.375 C6.22453125 0.44460937 7.1990625 0.51421875 8.203125 0.5859375 C10.96323703 0.99455744 12.54764861 1.75496007 15 3 C17.07169246 3.43473339 19.15727751 3.80654223 21.25 4.125 C22.86648438 4.37636719 22.86648438 4.37636719 24.515625 4.6328125 C25.74539063 4.81457031 25.74539063 4.81457031 27 5 C24 7 24 7 20.87109375 6.78515625 C16.51146943 5.90091358 12.31304614 4.73779561 8.0625 3.4375 C7.28326172 3.20353516 6.50402344 2.96957031 5.70117188 2.72851562 C3.79942813 2.15682579 1.89951774 1.57904309 0 1 C0 0.67 0 0.34 0 0 Z " fill="#7ABD5D" transform="translate(362,231)"/>
<path d="M0 0 C1.32 0 2.64 0 4 0 C3.52013969 5.56890517 2.70084819 10.67067568 1 16 C0.67 16 0.34 16 0 16 C-0.125 9.25 -0.125 9.25 1 7 C0.34 7 -0.32 7 -1 7 C-1.33 7.66 -1.66 8.32 -2 9 C-1.125 2.25 -1.125 2.25 0 0 Z " fill="#99DC7B" transform="translate(492,304)"/>
<path d="M0 0 C1.98 0.495 1.98 0.495 4 1 C3.81824219 1.58136719 3.63648438 2.16273437 3.44921875 2.76171875 C2.53518949 7.31596887 4.7932985 12.32247842 6.125 16.6875 C6.90853798 19.65375093 7.18423256 21.96016276 7 25 C4.37372829 21.06059243 3.23035856 16.99044148 1.8125 12.5 C1.38420898 11.19869141 1.38420898 11.19869141 0.94726562 9.87109375 C0.68236328 9.03707031 0.41746094 8.20304687 0.14453125 7.34375 C-0.09934326 6.58255859 -0.34321777 5.82136719 -0.59448242 5.03710938 C-1 3 -1 3 0 0 Z " fill="#7FC45E" transform="translate(266,117)"/>
<path d="M0 0 C1.4606285 2.64738916 2 3.89448334 2 7 C2.45068119 12.03420477 3.10696293 17.02450777 4 22 C1.09601887 18.68929883 0.23136657 15.71095881 -0.6875 11.4375 C-0.93886719 10.30183594 -1.19023437 9.16617188 -1.44921875 7.99609375 C-2 5 -2 5 -2 2 C-1.34 2 -0.68 2 0 2 C0 1.34 0 0.68 0 0 Z " fill="#7BC159" transform="translate(261,92)"/>
<path d="M0 0 C0.33 0.66 0.66 1.32 1 2 C0.3052879 3.72023948 -0.39956841 5.43786383 -1.1796875 7.12109375 C-2.13652436 9.19705636 -2.13652436 9.19705636 -2.9375 12.3125 C-4 15 -4 15 -6.125 16.375 C-6.74375 16.58125 -7.3625 16.7875 -8 17 C-7.41734728 12.57676318 -5.73233789 9.4844136 -3.4375 5.6875 C-2.79683594 4.61886719 -2.15617187 3.55023438 -1.49609375 2.44921875 C-1.00238281 1.64097656 -0.50867188 0.83273437 0 0 Z " fill="#80CD5E" transform="translate(290,320)"/>
<path d="M0 0 C7.59064664 0.48701051 14.67059167 1.99763587 22 4 C18.54785147 6.30143236 17.76520676 6.13833854 13.8125 5.625 C12.91144531 5.51414062 12.01039063 5.40328125 11.08203125 5.2890625 C10.05142578 5.14597656 10.05142578 5.14597656 9 5 C8.67 4.01 8.34 3.02 8 2 C5.69 2 3.38 2 1 2 C0.67 1.34 0.34 0.68 0 0 Z " fill="#9EDC82" transform="translate(296,5)"/>
<path d="M0 0 C-0.33 0.99 -0.66 1.98 -1 3 C-2.60681641 3.19916016 -2.60681641 3.19916016 -4.24609375 3.40234375 C-5.64325769 3.5805056 -7.04039159 3.75890319 -8.4375 3.9375 C-9.14455078 4.02451172 -9.85160156 4.11152344 -10.58007812 4.20117188 C-14.08817968 4.38216191 -14.08817968 4.38216191 -17 6 C-19.33297433 6.04092937 -21.66705225 6.04241723 -24 6 C-20.23931026 3.82585124 -16.18113804 2.89756093 -12 1.875 C-11.2884375 1.69324219 -10.576875 1.51148438 -9.84375 1.32421875 C-6.42865356 0.47681609 -3.54154278 0 0 0 Z " fill="#A8DE8D" transform="translate(201,6)"/>
<path d="M0 0 C4.22043229 1.55801005 6.53136168 4.71879909 9.25 8.125 C9.93835938 8.96998047 9.93835938 8.96998047 10.640625 9.83203125 C11.76674953 11.21622599 12.88424385 12.60743411 14 14 C9.90640538 14 8.5473499 12.29644256 5.578125 9.6640625 C3.65198297 7.63303155 2.83354343 5.65218364 2 3 C1.34 2.67 0.68 2.34 0 2 C0 1.34 0 0.68 0 0 Z " fill="#7CC05E" transform="translate(197,305)"/>
<path d="M0 0 C5.92863717 1.16651426 11.38798394 2.75519358 17 5 C17 5.33 17 5.66 17 6 C15.37509046 6.02698189 13.75005367 6.04638757 12.125 6.0625 C11.22007812 6.07410156 10.31515625 6.08570313 9.3828125 6.09765625 C7 6 7 6 5 5 C5 4.34 5 3.68 5 3 C3.35 2.67 1.7 2.34 0 2 C0 1.34 0 0.68 0 0 Z " fill="#A4DD89" transform="translate(331,14)"/>
<path d="M0 0 C0.33 0.66 0.66 1.32 1 2 C-0.17355714 4.41823896 -1.3941206 6.68757554 -2.75 9 C-3.29140625 9.96292969 -3.29140625 9.96292969 -3.84375 10.9453125 C-5.66915951 14.10671013 -6.91833773 15.94555849 -10 18 C-10 16.68 -10 15.36 -10 14 C-9.34 14 -8.68 14 -8 14 C-7.01 11.03 -6.02 8.06 -5 5 C-4.01 5 -3.02 5 -2 5 C-2 3.68 -2 2.36 -2 1 C-1.34 0.67 -0.68 0.34 0 0 Z " fill="#ACE297" transform="translate(468,373)"/>
<path d="M0 0 C0.33 0 0.66 0 1 0 C1.3690205 12.66970387 1.3690205 12.66970387 -1 18 C-1.66 18 -2.32 18 -3 18 C-3.42765417 11.58518742 -1.85743168 6.11404596 0 0 Z " fill="#A3DD89" transform="translate(8,189)"/>
<path d="M0 0 C0 0.66 0 1.32 0 2 C-0.93972656 2.09087891 -0.93972656 2.09087891 -1.8984375 2.18359375 C-3.12433594 2.30927734 -3.12433594 2.30927734 -4.375 2.4375 C-5.18710938 2.51871094 -5.99921875 2.59992187 -6.8359375 2.68359375 C-9.04272805 2.89090114 -9.04272805 2.89090114 -11 4 C-13.04055005 4.07065617 -15.08334257 4.08421976 -17.125 4.0625 C-18.22070312 4.05347656 -19.31640625 4.04445313 -20.4453125 4.03515625 C-21.70988281 4.01775391 -21.70988281 4.01775391 -23 4 C-23 3.67 -23 3.34 -23 3 C-20.10496617 2.49494737 -17.20912047 1.9957978 -14.3125 1.5 C-13.08756836 1.28537109 -13.08756836 1.28537109 -11.83789062 1.06640625 C-7.85021752 0.38834038 -4.06269596 -0.19858392 0 0 Z " fill="#B0E193" transform="translate(224,2)"/>
<path d="M0 0 C-3.17494007 2.55375615 -6.48103661 4.37447153 -10.125 6.1875 C-11.17945313 6.71730469 -12.23390625 7.24710937 -13.3203125 7.79296875 C-16 9 -16 9 -18 9 C-17 6 -17 6 -14 4 C-11.3125 3.875 -11.3125 3.875 -9 4 C-9 3.34 -9 2.68 -9 2 C-5.86501708 0.14223235 -3.62528568 -0.20140476 0 0 Z " fill="#A6DD8A" transform="translate(370,471)"/>
<path d="M0 0 C0.99 0.495 0.99 0.495 2 1 C2.88671875 3.80078125 2.88671875 3.80078125 3.6875 7.3125 C3.95949219 8.46363281 4.23148438 9.61476563 4.51171875 10.80078125 C4.95579704 13.7103822 4.99842122 15.28617052 4 18 C4 17.34 4 16.68 4 16 C3.34 16 2.68 16 2 16 C0.40837921 10.42932723 -0.20674944 5.78898419 0 0 Z " fill="#7ABF5C" transform="translate(241,405)"/>
<path d="M0 0 C0.33 1.32 0.66 2.64 1 4 C-2.75 7 -2.75 7 -5 7 C-6.66965451 7.31802943 -8.33678518 7.64984951 -10 8 C-8.33333333 6.33333333 -6.66666667 4.66666667 -5 3 C-4.443125 2.401875 -3.88625 1.80375 -3.3125 1.1875 C-2 0 -2 0 0 0 Z " fill="#7DC95C" transform="translate(319,292)"/>
<path d="M0 0 C0.33 0.66 0.66 1.32 1 2 C0.24172908 3.17487036 -0.53207755 4.33972592 -1.3125 5.5 C-1.74175781 6.1496875 -2.17101562 6.799375 -2.61328125 7.46875 C-3.29970703 8.22671875 -3.29970703 8.22671875 -4 9 C-4.99 9 -5.98 9 -7 9 C-7 9.66 -7 10.32 -7 11 C-8.32 10.67 -9.64 10.34 -11 10 C-10.01 9.67 -9.02 9.34 -8 9 C-8 8.34 -8 7.68 -8 7 C-7.34 7 -6.68 7 -6 7 C-6 6.34 -6 5.68 -6 5 C-5.34 5 -4.68 5 -4 5 C-4 4.34 -4 3.68 -4 3 C-2 1.375 -2 1.375 0 0 Z " fill="#A2DC8A" transform="translate(88,60)"/>
<path d="M0 0 C-2.97 0.66 -5.94 1.32 -9 2 C-9 2.66 -9 3.32 -9 4 C-8.01 3.67 -7.02 3.34 -6 3 C-5.67 3.66 -5.34 4.32 -5 5 C-6.45922693 4.88590407 -7.91740598 4.75834456 -9.375 4.625 C-10.59316406 4.52058594 -10.59316406 4.52058594 -11.8359375 4.4140625 C-14 4 -14 4 -16 2 C-14.08654673 1.46748234 -12.1690705 0.94940517 -10.25 0.4375 C-9.18265625 0.14746094 -8.1153125 -0.14257812 -7.015625 -0.44140625 C-4 -1 -4 -1 0 0 Z " fill="#132E0B" transform="translate(77,248)"/>
<path d="M0 0 C3.14248678 1.57124339 3.70128824 4.2977685 5.125 7.4375 C5.66382813 8.61183594 6.20265625 9.78617188 6.7578125 10.99609375 C8 14 8 14 8 16 C5 15 5 15 3.375 12.1875 C2.30340582 9.70334985 1.5084212 7.62684284 1 5 C0.814375 4.0925 0.62875 3.185 0.4375 2.25 C0.293125 1.5075 0.14875 0.765 0 0 Z " fill="#A4DC8A" transform="translate(474,138)"/>
<path d="M0 0 C1.32 0 2.64 0 4 0 C4.33 0.66 4.66 1.32 5 2 C6.11375 2.1546875 6.11375 2.1546875 7.25 2.3125 C10.96111622 3.24027906 12.51334933 5.16798118 15 8 C15.33 8.66 15.66 9.32 16 10 C9.8034553 8.53239731 4.93130534 4.88851943 0 1 C0 0.67 0 0.34 0 0 Z " fill="#ADDF92" transform="translate(106,455)"/>
<path d="M0 0 C2.26223894 3.39335841 2.83862411 6.02477632 3.6875 10 C4.09548828 11.85625 4.09548828 11.85625 4.51171875 13.75 C5 17 5 17 4 20 C1.09382609 13.058915 -0.4946164 7.54290017 0 0 Z " fill="#ABE195" transform="translate(493,188)"/>
<path d="M0 0 C0 0.33 0 0.66 0 1 C-2.43681587 1.50354867 -4.87435439 2.00296756 -7.3125 2.5 C-8.34793945 2.71462891 -8.34793945 2.71462891 -9.40429688 2.93359375 C-12.32524773 3.52625044 -15.01108122 4 -18 4 C-18 3.01 -18 2.02 -18 1 C-11.97968656 0.39034801 -6.05329744 -0.13451772 0 0 Z " fill="#A8DB8E" transform="translate(311,494)"/>
<path d="M0 0 C1.98 0.99 1.98 0.99 4 2 C4 2.99 4 3.98 4 5 C4.66 5 5.32 5 6 5 C6.103125 5.61875 6.20625 6.2375 6.3125 6.875 C6.87525373 9.36526484 6.87525373 9.36526484 10 11 C9.67 12.32 9.34 13.64 9 15 C7.86863414 13.44210317 6.74517679 11.87846143 5.625 10.3125 C4.99851562 9.44238281 4.37203125 8.57226562 3.7265625 7.67578125 C2.10584157 5.16403048 1.00141912 2.80700813 0 0 Z " fill="#ACDE91" transform="translate(33,375)"/>
<path d="M0 0 C2.29648357 2.89585905 4.04347557 5.8172031 5.6875 9.125 C6.12449219 9.99382812 6.56148437 10.86265625 7.01171875 11.7578125 C8 14 8 14 8 16 C7.01 15.67 6.02 15.34 5 15 C5 14.01 5 13.02 5 12 C4.34 12 3.68 12 3 12 C1.82923301 8.01939223 0.74250597 4.08378283 0 0 Z " fill="#7CBB5F" transform="translate(216,328)"/>
<path d="M0 0 C0.99 0 1.98 0 3 0 C3 0.66 3 1.32 3 2 C0.8125 3.7265625 0.8125 3.7265625 -2 5.625 C-2.928125 6.25664062 -3.85625 6.88828125 -4.8125 7.5390625 C-5.534375 8.02117187 -6.25625 8.50328125 -7 9 C-7.66 8.01 -8.32 7.02 -9 6 C-8.01 5.67 -7.02 5.34 -6 5 C-6 4.34 -6 3.68 -6 3 C-4.35 3 -2.7 3 -1 3 C-0.67 2.01 -0.34 1.02 0 0 Z " fill="#A4DC89" transform="translate(402,448)"/>
<path d="M0 0 C0.33 0 0.66 0 1 0 C1.20086443 3.71599191 1.1519437 4.77208445 -1 8 C-4.625 9.1875 -4.625 9.1875 -8 10 C-7.04367001 8.70684939 -6.08486149 7.41553147 -5.125 6.125 C-4.59132813 5.40570313 -4.05765625 4.68640625 -3.5078125 3.9453125 C-2 2 -2 2 0 0 Z " fill="#7BC15C" transform="translate(302,306)"/>
<path d="M0 0 C0.66 0.33 1.32 0.66 2 1 C-0.31 6.94 -2.62 12.88 -5 19 C-5.33 19 -5.66 19 -6 19 C-6.29823729 14.79408955 -5.394932 12.14368452 -3.5625 8.375 C-2.21811921 5.57899438 -0.98185209 2.94555626 0 0 Z " fill="#7FC260" transform="translate(229,141)"/>
<path d="M0 0 C4.87362847 0.45336079 7.39042389 1.7089159 11 5 C10.67 5.99 10.34 6.98 10 8 C8.33055479 6.85821872 6.6645052 5.71147095 5 4.5625 C4.071875 3.92441406 3.14375 3.28632813 2.1875 2.62890625 C1.465625 2.09136719 0.74375 1.55382812 0 1 C0 0.67 0 0.34 0 0 Z " fill="#A1DA82" transform="translate(95,447)"/>
<path d="M0 0 C-2.97 2.97 -5.94 5.94 -9 9 C-9.33 8.01 -9.66 7.02 -10 6 C-9.34 6 -8.68 6 -8 6 C-7.9175 5.21625 -7.835 4.4325 -7.75 3.625 C-7 1 -7 1 -5.125 -0.375 C-3 -1 -3 -1 0 0 Z " fill="#A7DE88" transform="translate(433,424)"/>
<path d="M0 0 C0 0.66 0 1.32 0 2 C-4.38461538 5 -4.38461538 5 -7 5 C-7 5.66 -7 6.32 -7 7 C-9.64 7.66 -12.28 8.32 -15 9 C-12.59888822 6.36115438 -9.99444972 4.63586471 -6.9375 2.8125 C-5.62072266 2.01779297 -5.62072266 2.01779297 -4.27734375 1.20703125 C-2 0 -2 0 0 0 Z " fill="#77B65A" transform="translate(335,282)"/>
<path d="M0 0 C-2.57304875 3.28778452 -4.97690792 3.48641378 -9 4 C-9.99 4.495 -9.99 4.495 -11 5 C-12.99960012 5.039992 -15.00047242 5.04346799 -17 5 C-17 4.67 -17 4.34 -17 4 C-16.40832031 3.80664062 -15.81664062 3.61328125 -15.20703125 3.4140625 C-10.10838101 1.73687152 -10.10838101 1.73687152 -5.125 -0.25 C-3 -1 -3 -1 0 0 Z " fill="#78B959" transform="translate(358,274)"/>
<path d="M0 0 C-3.38370684 3.38370684 -7.2332093 3.05529986 -11.8125 3.0625 C-13.20839779 3.04655989 -14.60427948 3.02736707 -16 3 C-13.37109503 1.60926232 -10.87877953 0.56030796 -8 -0.1875 C-7.34 -0.36667969 -6.68 -0.54585938 -6 -0.73046875 C-3.73459024 -1.03576811 -2.164908 -0.68136613 0 0 Z " fill="#71AE53" transform="translate(414,259)"/>
<path d="M0 0 C1.98 0 3.96 0 6 0 C3.74109621 2.51954654 1.582103 3.87332733 -1.5 5.25 C-2.2734375 5.60578125 -3.046875 5.9615625 -3.84375 6.328125 C-6 7 -6 7 -9 6 C-8.34 6 -7.68 6 -7 6 C-7 5.34 -7 4.68 -7 4 C-5.35 4 -3.7 4 -2 4 C-1.34 2.68 -0.68 1.36 0 0 Z " fill="#7FC460" transform="translate(162,219)"/>
<path d="M0 0 C0.96661363 3.12180401 0.98988909 5.52083795 0.5625 8.75 C0.46066406 9.54921875 0.35882812 10.3484375 0.25390625 11.171875 C0.12822266 12.07679688 0.12822266 12.07679688 0 13 C-0.99 13 -1.98 13 -3 13 C-3.33 13.66 -3.66 14.32 -4 15 C-3.32584613 9.7415998 -1.75734451 4.97361654 0 0 Z " fill="#A6E08E" transform="translate(20,151)"/>
<path d="M0 0 C5.38323353 6.49700599 5.38323353 6.49700599 7 10 C6.1875 12.3125 6.1875 12.3125 5 14 C5 12.68 5 11.36 5 10 C4.34 10 3.68 10 3 10 C3 9.34 3 8.68 3 8 C2.34 8 1.68 8 1 8 C0.67 5.36 0.34 2.72 0 0 Z " fill="#A4DC8A" transform="translate(463,118)"/>
<path d="M0 0 C0.66 0 1.32 0 2 0 C3.46670113 5.22512279 4.22577402 9.5814234 4 15 C0.57974684 11.57974684 0.04655199 7.28017975 -0.125 2.5625 C-0.08375 1.716875 -0.0425 0.87125 0 0 Z " fill="#A3DB88" transform="translate(7,304)"/>
<path d="M0 0 C5.27315333 0.4452885 10.01770224 1.08373163 15 3 C15 3.33 15 3.66 15 4 C13.00045254 4.04254356 10.99958364 4.04080783 9 4 C8.67 3.67 8.34 3.34 8 3 C6.48071962 2.92820036 4.95832518 2.91607993 3.4375 2.9375 C2.19806641 2.95103516 2.19806641 2.95103516 0.93359375 2.96484375 C-0.02353516 2.98224609 -0.02353516 2.98224609 -1 3 C-0.67 2.01 -0.34 1.02 0 0 Z " fill="#80C65F" transform="translate(82,257)"/>
<path d="M0 0 C5.28 0 10.56 0 16 0 C16 0.99 16 1.98 16 3 C10.36718401 3.2396943 5.45461169 2.38529821 0 1 C0 0.67 0 0.34 0 0 Z " fill="#79B95E" transform="translate(404,242)"/>
<path d="M0 0 C2.41930709 2.41930709 2.79442204 4.15707218 3.6875 7.4375 C3.95949219 8.40558594 4.23148437 9.37367188 4.51171875 10.37109375 C5 13 5 13 4 16 C2.14353999 13.21530998 1.54842185 11.7318584 0.875 8.5625 C0.70742188 7.80066406 0.53984375 7.03882813 0.3671875 6.25390625 C0 4 0 4 0 0 Z " fill="#A3DC8A" transform="translate(487,168)"/>
<path d="M0 0 C0.625 1.8125 0.625 1.8125 1 4 C0.01 5.485 0.01 5.485 -1 7 C-1.66 7 -2.32 7 -3 7 C-3 8.65 -3 10.3 -3 12 C-3.99 12.33 -4.98 12.66 -6 13 C-5.3578757 10.02348631 -4.38279178 7.52216183 -3 4.8125 C-2.4740625 3.77029297 -2.4740625 3.77029297 -1.9375 2.70703125 C-1 1 -1 1 0 0 Z " fill="#ACE08B" transform="translate(32,128)"/>
<path d="M0 0 C0.556875 0.185625 1.11375 0.37125 1.6875 0.5625 C4.399133 1.07551165 6.34371039 0.6640724 9 0 C3.85714286 4.42857143 3.85714286 4.42857143 0 5 C-0.33 4.01 -0.66 3.02 -1 2 C-0.67 1.34 -0.34 0.68 0 0 Z " fill="#9ADC7D" transform="translate(370,466)"/>
<path d="M0 0 C0.99 0.33 1.98 0.66 3 1 C2.34 1 1.68 1 1 1 C1 1.66 1 2.32 1 3 C-0.45537568 3.83848804 -1.91440373 4.67063934 -3.375 5.5 C-4.59316406 6.19609375 -4.59316406 6.19609375 -5.8359375 6.90625 C-8 8 -8 8 -10 8 C-10 7.01 -10 6.02 -10 5 C-8.35 5 -6.7 5 -5 5 C-5 4.34 -5 3.68 -5 3 C-3.35 2.67 -1.7 2.34 0 2 C0 1.34 0 0.68 0 0 Z " fill="#AEDE93" transform="translate(389,458)"/>
<path d="M0 0 C0.33 0 0.66 0 1 0 C1.13277344 0.71027344 1.26554687 1.42054687 1.40234375 2.15234375 C1.57894531 3.07144531 1.75554687 3.99054688 1.9375 4.9375 C2.11152344 5.85402344 2.28554688 6.77054687 2.46484375 7.71484375 C2.77714988 9.95289844 2.77714988 9.95289844 4 11 C4.04092937 13.33297433 4.04241723 15.66705225 4 18 C0.5965383 14.5965383 0.14884531 9.55827869 -0.125 4.8515625 C-0.125 3.23383832 -0.06877709 1.6162615 0 0 Z " fill="#84C965" transform="translate(256,76)"/>
<path d="M0 0 C1.67542976 0.28604898 3.34385343 0.61781233 5 1 C5 1.99 5 2.98 5 4 C3.54077307 3.88590407 2.08259402 3.75834456 0.625 3.625 C-0.59316406 3.52058594 -0.59316406 3.52058594 -1.8359375 3.4140625 C-4 3 -4 3 -6 1 C-4.7934375 1.0309375 -4.7934375 1.0309375 -3.5625 1.0625 C-1.06645115 1.29633621 -1.06645115 1.29633621 0 0 Z " fill="#9FDA82" transform="translate(193,492)"/>
<path d="M0 0 C-5.01372252 3.52913975 -8.83543922 5.61471495 -15 6 C-13.48400735 2.9680147 -11.1403567 2.58975563 -8.0625 1.3125 C-6.98097656 0.85488281 -5.89945313 0.39726562 -4.78515625 -0.07421875 C-2 -1 -2 -1 0 0 Z " fill="#ACDF92" transform="translate(156,20)"/>
<path d="M0 0 C8.35010941 1.17286652 8.35010941 1.17286652 11.0625 4.625 C11.371875 5.40875 11.68125 6.1925 12 7 C7.69235185 5.43358249 3.93828536 3.31663844 0 1 C0 0.67 0 0.34 0 0 Z " fill="#A9DF91" transform="translate(122,465)"/>
<path d="M0 0 C0.66 0 1.32 0 2 0 C3.60355101 3.50776784 4.22036864 6.14354879 4 10 C3.01 10.33 2.02 10.66 1 11 C1 8.69 1 6.38 1 4 C0.34 4 -0.32 4 -1 4 C-0.67 2.68 -0.34 1.36 0 0 Z " fill="#82D060" transform="translate(243,421)"/>
<path d="M0 0 C0.66 0 1.32 0 2 0 C1.58578031 4.83256305 -0.46413986 6.82679218 -4 10 C-4 5.75354935 -2.18249194 3.61475228 0 0 Z " fill="#A5DD8C" transform="translate(44,108)"/>
<path d="M0 0 C1.5 1.375 1.5 1.375 3 3 C3 3.66 3 4.32 3 5 C3.66 5 4.32 5 5 5 C5.66 6.98 6.32 8.96 7 11 C2.94089532 9.64696511 2.0786931 7.65563269 0 4 C0 2.68 0 1.36 0 0 Z " fill="#A5D88C" transform="translate(456,107)"/>
<path d="M0 0 C0.99 0.33 1.98 0.66 3 1 C2.67 1.99 2.34 2.98 2 4 C-1.3 4.66 -4.6 5.32 -8 6 C-5.35220307 3.35220307 -3.31216275 1.65608138 0 0 Z " fill="#9FDD87" transform="translate(126,33)"/>
<path d="M0 0 C6.09781001 -0.22084624 11.21642935 -0.01167675 17 2 C17 2.33 17 2.66 17 3 C10.9981863 3.21824777 5.80766296 2.5056904 0 1 C0 0.67 0 0.34 0 0 Z " fill="#B6E09C" transform="translate(198,496)"/>
<path d="M0 0 C0.33 0.99 0.66 1.98 1 3 C-1.75 5.0625 -1.75 5.0625 -5 7 C-6.32 6.67 -7.64 6.34 -9 6 C-6.03 4.02 -3.06 2.04 0 0 Z " fill="#A8DB91" transform="translate(108,45)"/>
<path d="M0 0 C4.60272162 1.77027754 7.7129243 3.18699218 11 7 C9.68 7 8.36 7 7 7 C7 6.34 7 5.68 7 5 C5.68 4.67 4.36 4.34 3 4 C3 3.34 3 2.68 3 2 C2.01 2 1.02 2 0 2 C0 1.34 0 0.68 0 0 Z " fill="#A5DD8C" transform="translate(376,34)"/>
<path d="M0 0 C0.66 0.33 1.32 0.66 2 1 C1.01 2.485 1.01 2.485 0 4 C-2.625 4.1875 -2.625 4.1875 -5 4 C-5.33 4.99 -5.66 5.98 -6 7 C-7.32 6.67 -8.64 6.34 -10 6 C-2.83146067 1.11235955 -2.83146067 1.11235955 0 0 Z " fill="#AFE298" transform="translate(138,26)"/>
<path d="M0 0 C3.63 0 7.26 0 11 0 C7.31265242 2.45823172 4.30300029 3.01242616 0 4 C0 2.68 0 1.36 0 0 Z " fill="#98DB7B" transform="translate(331,484)"/>
<path d="M0 0 C2.24606427 1.77444972 2.95081002 2.58352485 3.29296875 5.48046875 C3.25816406 6.37378906 3.22335937 7.26710938 3.1875 8.1875 C3.16042969 9.08855469 3.13335937 9.98960937 3.10546875 10.91796875 C3.07066406 11.60503906 3.03585937 12.29210937 3 13 C0.89172945 9.83759418 0.66182535 8.49342531 0.375 4.8125 C0.30023437 3.91144531 0.22546875 3.01039063 0.1484375 2.08203125 C0.09945313 1.39496094 0.05046875 0.70789063 0 0 Z " fill="#A5DE88" transform="translate(4,291)"/>
<path d="M0 0 C4.05606165 0.46800711 7.46588679 0.87953208 11 3 C8.36 3.66 5.72 4.32 3 5 C3.33 4.01 3.66 3.02 4 2 C2.68 1.34 1.36 0.68 0 0 Z " fill="#193610" transform="translate(431,248)"/>
<path d="M0 0 C0.33 0 0.66 0 1 0 C1.33 3.96 1.66 7.92 2 12 C1.01 12 0.02 12 -1 12 C-0.67 8.04 -0.34 4.08 0 0 Z " fill="#A4E18B" transform="translate(498,209)"/>
<path d="M0 0 C4.455 2.97 4.455 2.97 9 6 C6 7 6 7 2.8125 5.5625 C1.884375 5.046875 0.95625 4.53125 0 4 C0 2.68 0 1.36 0 0 Z " fill="#A7DD8C" transform="translate(399,49)"/>
<path d="M0 0 C0.66 0 1.32 0 2 0 C2.66 2.31 3.32 4.62 4 7 C2.35 6.67 0.7 6.34 -1 6 C-0.67 4.02 -0.34 2.04 0 0 Z " fill="#73B956" transform="translate(227,354)"/>
<path d="M0 0 C0.99 0.33 1.98 0.66 3 1 C3.33 4.3 3.66 7.6 4 11 C1.6870518 8.6870518 1.50419025 7.52095125 0.875 4.375 C0.70742187 3.55773437 0.53984375 2.74046875 0.3671875 1.8984375 C0.24601563 1.27195312 0.12484375 0.64546875 0 0 Z " fill="#A8DB89" transform="translate(14,330)"/>
<path d="M0 0 C0.33 0.66 0.66 1.32 1 2 C-0.25 5.5625 -0.25 5.5625 -2 9 C-2.99 9.33 -3.98 9.66 -5 10 C-3.66511872 6.40608886 -2.03977277 3.24509304 0 0 Z " fill="#74B359" transform="translate(290,320)"/>
<path d="M0 0 C3.37503669 1.1858237 5.64722731 2.27573689 8 5 C7.67 5.99 7.34 6.98 7 8 C5.83035398 6.8572081 4.66435444 5.71068285 3.5 4.5625 C2.8503125 3.92441406 2.200625 3.28632813 1.53125 2.62890625 C0 1 0 1 0 0 Z " fill="#11280A" transform="translate(192,298)"/>
<path d="M0 0 C3.26460973 1.80412643 4.88929795 2.83394693 7 6 C5.35 6 3.7 6 2 6 C1.34 4.02 0.68 2.04 0 0 Z " fill="#7FC860" transform="translate(188,296)"/>
<path d="M0 0 C3.465 1.98 3.465 1.98 7 4 C7 4.99 7 5.98 7 7 C6.67 6.34 6.34 5.68 6 5 C2.97065509 4.34227572 2.97065509 4.34227572 0 4 C0 2.68 0 1.36 0 0 Z " fill="#A9DE8E" transform="translate(390,43)"/>
<path d="M0 0 C1.45823212 -0.0270043 2.91660675 -0.04639787 4.375 -0.0625 C5.18710938 -0.07410156 5.99921875 -0.08570313 6.8359375 -0.09765625 C9 0 9 0 11 1 C11 1.66 11 2.32 11 3 C9.35 3 7.7 3 6 3 C6 2.34 6 1.68 6 1 C4.02 1 2.04 1 0 1 C0 0.67 0 0.34 0 0 Z " fill="#92D974" transform="translate(209,497)"/>
<path d="M0 0 C7.50769231 0.61538462 7.50769231 0.61538462 10 2.5625 C10.33 3.036875 10.66 3.51125 11 4 C3.49230769 3.38461538 3.49230769 3.38461538 1 1.4375 C0.67 0.963125 0.34 0.48875 0 0 Z " fill="#A0D780" transform="translate(140,475)"/>
<path d="M0 0 C0.33 0 0.66 0 1 0 C0.67 2.97 0.34 5.94 0 9 C-0.99 9.33 -1.98 9.66 -3 10 C-2.01 6.7 -1.02 3.4 0 0 Z " fill="#73B157" transform="translate(269,368)"/>
<path d="M0 0 C0.66 0 1.32 0 2 0 C1.67 2.97 1.34 5.94 1 9 C0.34 8.67 -0.32 8.34 -1 8 C-0.67 5.36 -0.34 2.72 0 0 Z " fill="#96DA7A" transform="translate(498,281)"/>
<path d="M0 0 C2 3 2 3 2 5 C-0.76264289 5.59732819 -3.16032769 6 -6 6 C-4.02 4.02 -2.04 2.04 0 0 Z " fill="#B0E597" transform="translate(62,86)"/>
<path d="M0 0 C3.26460973 1.80412643 4.88929795 2.83394693 7 6 C4 6 4 6 1 4 C0.3125 1.875 0.3125 1.875 0 0 Z " fill="#A4DE8A" transform="translate(408,56)"/>
<path d="M0 0 C0.33 0.99 0.66 1.98 1 3 C1.99 2.67 2.98 2.34 4 2 C3.67 4.31 3.34 6.62 3 9 C0.23776722 6.23776722 0.42143709 3.79293383 0 0 Z " fill="#1D3913" transform="translate(248,433)"/>
<path d="M0 0 C0 0.66 0 1.32 0 2 C-1.96466413 3.06775224 -3.96855359 4.06553465 -6 5 C-6.66 4.67 -7.32 4.34 -8 4 C-8 3.34 -8 2.68 -8 2 C-2.25 0 -2.25 0 0 0 Z " fill="#84D461" transform="translate(327,289)"/>
<path d="M0 0 C0.66 0 1.32 0 2 0 C1.50168276 3.68754757 0.89932357 5.60490662 -2 8 C-1.125 1.125 -1.125 1.125 0 0 Z " fill="#7EC860" transform="translate(221,160)"/>
<path d="M0 0 C1 2 1 2 0.25 5 C-1 8 -1 8 -4 10 C-3.52449439 8.51965236 -3.04448784 7.04074979 -2.5625 5.5625 C-2.29566406 4.73878906 -2.02882813 3.91507813 -1.75390625 3.06640625 C-1 1 -1 1 0 0 Z " fill="#B5E39A" transform="translate(25,141)"/>
<path d="M0 0 C-2.76223278 2.76223278 -5.20706617 2.57856291 -9 3 C-9 2.34 -9 1.68 -9 1 C-6.04335481 -0.4783226 -3.25770263 -0.06032783 0 0 Z " fill="#AFDF96" transform="translate(320,491)"/>
<path d="M0 0 C4.75 0.75 4.75 0.75 7 3 C6.67 3.99 6.34 4.98 6 6 C4 4.625 4 4.625 2 3 C2 2.34 2 1.68 2 1 C1.34 0.67 0.68 0.34 0 0 Z " fill="#A7DC8F" transform="translate(78,432)"/>
<path d="M0 0 C0.99 0.495 0.99 0.495 2 1 C2.59355614 3.64860427 2.74209269 6.29197322 3 9 C2.67 8.34 2.34 7.68 2 7 C1.34 7 0.68 7 0 7 C0 4.69 0 2.38 0 0 Z " fill="#6FAC57" transform="translate(243,414)"/>
<path d="M0 0 C0.33 0.99 0.66 1.98 1 3 C-0.65 4.65 -2.3 6.3 -4 8 C-4 6.68 -4 5.36 -4 4 C-3.34 4 -2.68 4 -2 4 C-1.34 2.68 -0.68 1.36 0 0 Z " fill="#A4DD8B" transform="translate(462,383)"/>
<path d="M0 0 C0.33 0.99 0.66 1.98 1 3 C0.01 3.66 -0.98 4.32 -2 5 C-2.99 4.67 -3.98 4.34 -5 4 C-4.67 3.01 -4.34 2.02 -4 1 C-2 0 -2 0 0 0 Z " fill="#7BCB5A" transform="translate(176,212)"/>
<path d="M0 0 C0.66 0.66 1.32 1.32 2 2 C-1.98060777 3.17076699 -5.91621717 4.25749403 -10 5 C-9 3 -9 3 -6.93359375 2.1484375 C-5.69802734 1.76558594 -5.69802734 1.76558594 -4.4375 1.375 C-3.61121094 1.11460938 -2.78492188 0.85421875 -1.93359375 0.5859375 C-1.29550781 0.39257812 -0.65742188 0.19921875 0 0 Z " fill="#85D261" transform="translate(149,23)"/>
</svg>
